<svg xmlns="http://www.w3.org/2000/svg" viewBox="0 0 243.07 67.2"><defs><style>.cls-1,.cls-2,.cls-3{fill:#fff;}.cls-2,.cls-3{stroke:#fff;stroke-width:0.45px;}.cls-3{stroke-miterlimit:10;}</style></defs><title>Asset 1</title><g id="Layer_2" data-name="Layer 2"><g id="Layer_1-2" data-name="Layer 1"><path class="cls-1" d="M79.77,16.41c.06,1.18.7,1.73,2.08,1.73s1.92-.58,1.92-1.49c0-1.29-1.25-1.36-3.3-1.94-2.7-.73-3.93-1.75-3.93-3.79,0-2.22,2-4,5.46-4,3,0,4.77,1.44,4.77,3.66v.1H83.49A1.58,1.58,0,0,0,81.7,9.17c-1.13,0-1.8.57-1.8,1.33,0,1.07,1.21,1.18,3.36,1.73,2.8.7,4.08,1.77,4.08,3.87,0,2.51-2.23,4.57-5.62,4.57s-5.38-1.54-5.43-4.26Z"/><path class="cls-1" d="M95.23,20.67c-3.48,0-5.76-2.61-5.76-7.06,0-4.18,2.28-6.69,6-6.69,3,0,5,1.8,5,4.78H97c-.15-1.64-.66-2.35-1.74-2.35-1.28,0-1.87,1.39-1.87,4.18,0,3,.48,4.45,2,4.45,1,0,1.59-.86,1.69-2.59h3.51C100.49,18.74,98.54,20.67,95.23,20.67Z"/><path class="cls-1" d="M103.21,3.73h3.72v5.2a4.37,4.37,0,0,1,4-2c2.87,0,4.2,1.64,4.2,5v8.45h-3.71V12.44c0-1.86-.54-2.75-2.11-2.75a2.32,2.32,0,0,0-2.35,2.59v8.08h-3.72Z"/><path class="cls-1" d="M118.72,3.73h3.72V20.36h-3.72Z"/><path class="cls-1" d="M138,17.82c0,.81,0,1.68.11,2.54h-3.54l-.1-2a4.42,4.42,0,0,1-4.16,2.27c-2.87,0-4.2-1.64-4.2-5V7.23h3.72v7.9c0,1.86.53,2.75,2.1,2.75a2.31,2.31,0,0,0,2.36-2.57V7.23H138Z"/><path class="cls-1" d="M141.64,9.74c0-.81,0-1.65-.1-2.51h3.54l.1,2a4.41,4.41,0,0,1,4.15-2.27,3.85,3.85,0,0,1,3.93,2.56,4.15,4.15,0,0,1,4.2-2.56c2.87,0,4.21,1.64,4.21,5v8.45H158V12.44c0-1.86-.54-2.75-2.1-2.75a2.32,2.32,0,0,0-2.36,2.59v8.08h-3.72V12.44c0-1.86-.54-2.75-2.08-2.75a2.3,2.3,0,0,0-2.33,2.59v8.08h-3.72Z"/><path class="cls-1" d="M165.26,18.19V3.73H169V9a4.32,4.32,0,0,1,3.87-2c3,0,5.21,2.56,5.21,6.8s-2.23,6.82-5.26,6.82a4.42,4.42,0,0,1-3.87-2.14l-.13,1.88h-3.66A20.26,20.26,0,0,0,165.26,18.19Zm6.38-.11c1.61,0,2.61-1.49,2.61-4.26s-1-4.29-2.61-4.29-2.74,1.57-2.74,4.29S170,18.08,171.64,18.08Z"/><path class="cls-1" d="M186.48,20.65c-3.77,0-6-2.46-6-6.72,0-4.5,2.28-7,6.17-7,3.64,0,5.75,2.43,5.75,6.82a8.43,8.43,0,0,1,0,.87h-8.31c0,2.35.83,3.5,2.39,3.5a2.08,2.08,0,0,0,2.23-1.86H192C191.79,19,189.77,20.65,186.48,20.65Zm2.11-8.48c0-1.88-.75-2.85-2.18-2.85-1.26,0-2.13,1-2.23,2.85Z"/><path class="cls-1" d="M195.36,11.31c0-1.49-.06-2.85-.16-4.08h3.44l.13,2.35c.66-1.62,2.1-2.45,4.23-2.45h.1v3.45a8,8,0,0,0-.82-.05c-2,0-3.13,1-3.13,2.74v7.09h-3.79Z"/><path class="cls-1" d="M217.43,9.32V19.57c0,4.16-1.87,6-6.38,6-3.69,0-5.64-1.55-5.64-4.27H209A1.86,1.86,0,0,0,211,23c2,0,2.67-.94,2.67-3.3V18.19A4.25,4.25,0,0,1,210,20.05c-3,0-5.05-2.49-5.05-6.54S207.07,7,210,7a4.24,4.24,0,0,1,3.74,2l.13-1.78h3.64A17.93,17.93,0,0,0,217.43,9.32Zm-6.28,8c1.59,0,2.64-1.41,2.64-3.84s-1-3.87-2.64-3.87-2.54,1.36-2.54,3.87S209.59,17.35,211.15,17.35Z"/><path class="cls-1" d="M226.46,20.65c-3.77,0-6-2.46-6-6.72,0-4.5,2.28-7,6.18-7,3.64,0,5.74,2.43,5.74,6.82a8.43,8.43,0,0,1,0,.87h-8.3c0,2.35.82,3.5,2.38,3.5a2.08,2.08,0,0,0,2.23-1.86H232C231.76,19,229.74,20.65,226.46,20.65Zm2.1-8.48c0-1.88-.74-2.85-2.18-2.85-1.26,0-2.13,1-2.23,2.85Z"/><path class="cls-1" d="M235.33,11.31c0-1.49-.05-2.85-.16-4.08h3.44l.13,2.35c.66-1.62,2.1-2.45,4.23-2.45h.1v3.45a7.83,7.83,0,0,0-.82-.05c-2,0-3.13,1-3.13,2.74v7.09h-3.79Z"/><path class="cls-1" d="M79.77,36.17c.06,1.17.7,1.72,2.08,1.72s1.92-.57,1.92-1.49c0-1.28-1.25-1.36-3.3-1.93-2.7-.73-3.93-1.75-3.93-3.79,0-2.23,2-4,5.46-4,3,0,4.77,1.44,4.77,3.67v.1H83.49a1.59,1.59,0,0,0-1.79-1.52c-1.13,0-1.8.58-1.8,1.34,0,1.07,1.21,1.17,3.36,1.72,2.8.71,4.08,1.78,4.08,3.87,0,2.51-2.23,4.58-5.62,4.58s-5.38-1.54-5.43-4.26Z"/><path class="cls-1" d="M95.23,40.43c-3.48,0-5.76-2.61-5.76-7.06,0-4.18,2.28-6.7,6-6.7,3,0,5,1.81,5,4.79H97c-.15-1.65-.66-2.35-1.74-2.35-1.28,0-1.87,1.38-1.87,4.18,0,3,.48,4.45,2,4.45,1,0,1.59-.87,1.69-2.59h3.51C100.49,38.5,98.54,40.43,95.23,40.43Z"/><path class="cls-1" d="M103.21,23.48h3.72v5.21a4.37,4.37,0,0,1,4-2c2.87,0,4.2,1.65,4.2,5v8.45h-3.71V32.19c0-1.85-.54-2.74-2.11-2.74A2.32,2.32,0,0,0,106.93,32v8.08h-3.72Z"/><path class="cls-1" d="M123.73,40.4c-3.77,0-6-2.45-6-6.72,0-4.49,2.28-7,6.18-7,3.64,0,5.75,2.44,5.75,6.83a8.14,8.14,0,0,1,0,.86h-8.31c0,2.36.82,3.51,2.39,3.51A2.08,2.08,0,0,0,125.94,36h3.3C129,38.76,127,40.4,123.73,40.4Zm2.11-8.47c0-1.88-.75-2.85-2.19-2.85-1.25,0-2.12,1-2.22,2.85Z"/><path class="cls-1" d="M132.24,31.07c0-1.49-.05-2.85-.16-4.08h3.44l.13,2.35c.66-1.62,2.1-2.46,4.23-2.46h.1v3.46a7.92,7.92,0,0,0-.82-.06c-2,0-3.13,1-3.13,2.75v7.09h-3.79Z"/><path class="cls-1" d="M147.42,40.4c-3.77,0-6-2.45-6-6.72,0-4.49,2.28-7,6.18-7,3.64,0,5.74,2.44,5.74,6.83,0,.29,0,.58,0,.86H145c0,2.36.82,3.51,2.39,3.51A2.08,2.08,0,0,0,149.63,36h3.3C152.73,38.76,150.7,40.4,147.42,40.4Zm2.1-8.47c0-1.88-.74-2.85-2.18-2.85-1.25,0-2.12,1-2.23,2.85Z"/><path class="cls-1" d="M156.29,31.07q0-2.24-.15-4.08h3.44l.12,2.35c.67-1.62,2.1-2.46,4.23-2.46H164v3.46c-.29,0-.57-.06-.82-.06-2,0-3.13,1-3.13,2.75v7.09h-3.8Z"/><path class="cls-1" d="M82.1,60.78c-3.76,0-6-2.61-6-7,0-4.74,2.18-7.33,6-7.33,3.11,0,5.07,1.72,5.2,4.58H85.45A3.3,3.3,0,0,0,82,47.76c-2.67,0-4.17,2.05-4.17,5.94,0,3.73,1.45,5.61,4.17,5.61a3.3,3.3,0,0,0,3.51-3H87.3C87.09,59.15,85.21,60.78,82.1,60.78Z"/><path class="cls-1" d="M95.87,46.45c3.59,0,6.26,2.81,6.26,7.17s-2.64,7.16-6.26,7.16S89.6,58,89.6,53.62,92.27,46.45,95.87,46.45Zm0,12.83c2.7,0,4.49-2.09,4.49-5.66S98.59,48,95.87,48s-4.5,2.1-4.5,5.67S93.14,59.28,95.87,59.28Z"/><path class="cls-1" d="M105.49,49.91c0-1.17,0-2.2-.1-3.13h1.66l.08,2.32a5.68,5.68,0,0,1,4.44-2.48c3.24,0,4.63,1.77,4.63,5.42v8.42h-1.69V52.23c0-2.81-.82-4.11-3.16-4.11a4.07,4.07,0,0,0-4.19,4.3v8h-1.67Z"/><path class="cls-1" d="M124.49,59.45c2.43,0,3.81-1.17,3.81-2.73s-1.11-2-3.21-2.53A18.72,18.72,0,0,1,121.22,53a3,3,0,0,1-1.58-2.73c0-2.32,1.8-3.81,5-3.81s4.82,1.3,4.9,3.7h-1.74c-.14-1.63-1.2-2.42-3.24-2.42s-3.3.9-3.3,2.29c0,1.66,1.52,1.87,4.36,2.58s4.44,1.58,4.44,4c0,2.59-2.07,4.28-5.53,4.28s-5.21-1.42-5.31-4H121C121.06,58.49,122.34,59.45,124.49,59.45Z"/><path class="cls-1" d="M138.05,59.31a5,5,0,0,0,1.47-.24v1.5a10.11,10.11,0,0,1-1.85.24q-3.19,0-3.19-3.19V48.09h-2.67V46.78h2.67V43.17h1.69v3.6h3.08v1.31h-3.08v8.8C136.17,58.55,136.61,59.31,138.05,59.31Z"/><path class="cls-1" d="M144.26,50.08c0-.52,0-1.64-.14-3.3h1.69l.11,2.1a3.93,3.93,0,0,1,3.82-2.18c.27,0,.57,0,.87,0v1.61c-.41,0-.71,0-.9,0-2.34,0-3.76,1.56-3.76,4.14v8h-1.69Z"/><path class="cls-1" d="M164.38,57.32c0,1.17.06,2.21.11,3.14h-1.63l-.08-2.16a5.57,5.57,0,0,1-4.47,2.46c-3.19,0-4.61-1.75-4.61-5.4V46.78h1.67v8.36c0,2.78.89,4.12,3.16,4.12A4,4,0,0,0,162.72,55v-8.2h1.66Z"/><path class="cls-1" d="M173.79,60.78c-3.76,0-6-2.61-6-7,0-4.74,2.18-7.33,6-7.33,3.11,0,5.07,1.72,5.2,4.58h-1.85a3.3,3.3,0,0,0-3.43-3.27c-2.67,0-4.17,2.05-4.17,5.94,0,3.73,1.44,5.61,4.17,5.61a3.3,3.3,0,0,0,3.51-3H179C178.78,59.15,176.9,60.78,173.79,60.78Z"/><path class="cls-1" d="M186.86,59.31a5,5,0,0,0,1.47-.24v1.5a10.11,10.11,0,0,1-1.85.24q-3.19,0-3.19-3.19V48.09h-2.67V46.78h2.67V43.17H185v3.6h3.08v1.31H185v8.8C185,58.55,185.42,59.31,186.86,59.31Z"/><path class="cls-1" d="M192.59,46.78h1.69V60.46h-1.69Z"/><path class="cls-1" d="M204.19,46.45c3.59,0,6.26,2.81,6.26,7.17s-2.64,7.16-6.26,7.16-6.27-2.83-6.27-7.16S200.59,46.45,204.19,46.45Zm0,12.83c2.69,0,4.49-2.09,4.49-5.66S206.91,48,204.19,48s-4.5,2.1-4.5,5.67S201.46,59.28,204.19,59.28Z"/><path class="cls-1" d="M213.81,49.91c0-1.17-.05-2.2-.11-3.13h1.67l.08,2.32a5.68,5.68,0,0,1,4.44-2.48c3.24,0,4.63,1.77,4.63,5.42v8.42h-1.69V52.23c0-2.81-.82-4.11-3.16-4.11a4.07,4.07,0,0,0-4.19,4.3v8h-1.67Z"/><path class="cls-2" d="M29.71,53.78c7.11,0,11.81-3.78,11.81-8.93A7.39,7.39,0,0,0,38,38.39c-1.76-1.24-5.16-2-9.79-3.72-8.93-3.19-13.37-6.26-13.37-13,0-7.17,5.87-12.39,14.94-12.39C39.17,9.3,44.52,13.15,45,20v6.92H40.67V20c-.33-4.7-3.91-7.37-10.3-7.37-7,0-11.22,3.59-11.22,8.67,0,5.35,4.24,7.11,12.06,9.79,4.5,1.56,8.22,2.67,10.57,4.76a10.78,10.78,0,0,1,3.91,8.67c0,7.76-6.06,12.78-16.11,12.78-9.84,0-15.13-4.17-15.91-12.65v-.14c-.12-2.59-.12-4.16-.12-4.16h4.53l.09,4.15v.15C18.3,50.52,22.28,53.78,29.71,53.78Z"/><path class="cls-2" d="M37.12,53.78c7.11,0,11.8-3.78,11.8-8.93a7.39,7.39,0,0,0-3.52-6.46c-1.76-1.24-5.15-2-9.78-3.72-8.94-3.19-13.37-6.26-13.37-13,0-7.17,5.87-12.39,14.93-12.39,9.39,0,14.74,3.85,15.2,10.7v6.92H48.07V20c-.32-4.7-3.91-7.37-10.3-7.37-7,0-11.22,3.59-11.22,8.67,0,5.35,4.24,7.11,12.07,9.79,4.5,1.56,8.21,2.67,10.56,4.76a10.75,10.75,0,0,1,3.91,8.67C53.09,52.28,47,57.3,37,57.3c-9.85,0-15.13-4.17-15.92-12.65a.47.47,0,0,0,0-.14C21,41.92,21,40.35,21,40.35h4.52l.1,4.15v.15C25.7,50.52,29.68,53.78,37.12,53.78Z"/><rect class="cls-3" x="29.74" y="9.29" width="7.49" height="3.78"/><rect class="cls-3" x="29.48" y="53.37" width="7.49" height="3.93"/><path class="cls-2" d="M62,26.9a29.21,29.21,0,1,0,0,13.41H66.3a33.36,33.36,0,1,1,0-13.4Z"/><rect class="cls-1" x="192.58" y="43.15" width="1.69" height="1.69"/></g></g></svg>